HIERARCHY
ROOT Hips
{
  OFFSET -66.4034 39.4875 29.0187
  CHANNELS 6 Xposition Yposition Zposition Zrotation Xrotation Yrotation
  JOINT ToSpine
  {
    OFFSET -2.69724 7.43032 -0.144315
    CHANNELS 3 Zrotation Xrotation Yrotation
    JOINT Spine
    {
      OFFSET -0.0310711 10.7595 1.96963
      CHANNELS 3 Zrotation Xrotation Yrotation
      JOINT Spine1
      {
        OFFSET 13.1342 3.43533 0.764692
        CHANNELS 3 Zrotation Xrotation Yrotation
        JOINT Neck
        {
          OFFSET 29.8703 7.82586 -0.130764
          CHANNELS 3 Zrotation Xrotation Yrotation
          JOINT Head
          {
            OFFSET 9.52751 0.295786 -0.907742
            CHANNELS 3 Zrotation Xrotation Yrotation
            End Site
            {
              OFFSET 16.4037 0.713936 2.7358
            }
          }
        }
        JOINT LeftShoulder
        {
          OFFSET 27.5574 4.95586 2.47156
          CHANNELS 3 Zrotation Xrotation Yrotation
          JOINT LeftArm
          {
            OFFSET 1.20734 -0.998971 20.1238
            CHANNELS 3 Zrotation Xrotation Yrotation
            JOINT LeftForeArm
            {
              OFFSET 26.8049 -0.0536703 -0.155908
              CHANNELS 3 Zrotation Xrotation Yrotation
              JOINT LeftHand
              {
                OFFSET 26.6817 0 0.320147
                CHANNELS 3 Zrotation Xrotation Yrotation
                End Site
                {
                  OFFSET 18.6119 0 0.382219
                }
              }
            }
          }
        }
        JOINT RightShoulder
        {
          OFFSET 27.5927 4.71444 -2.65209
          CHANNELS 3 Zrotation Xrotation Yrotation
          JOINT RightArm
          {
            OFFSET 2.83739 -1.17114 -18.7564
            CHANNELS 3 Zrotation Xrotation Yrotation
            JOINT RightForeArm
            {
              OFFSET 28.839 -0.0548439 1.22491
              CHANNELS 3 Zrotation Xrotation Yrotation
              JOINT RightHand
              {
                OFFSET 26.5114 0 -0.101894
                CHANNELS 3 Zrotation Xrotation Yrotation
                End Site
                {
                  OFFSET 18.2168 0 0
                }
              }
            }
          }
        }
      }
    }
  }
  JOINT LeftUpLeg
  {
    OFFSET -4.76168 -1.9167 -10.2353
    CHANNELS 3 Zrotation Xrotation Yrotation
    JOINT LeftLeg
    {
      OFFSET 2.55951 -42.0585 -8.02213
      CHANNELS 3 Zrotation Xrotation Yrotation
      JOINT LeftFoot
      {
        OFFSET 3.16357 -42.5282 -3.95426
        CHANNELS 3 Zrotation Xrotation Yrotation
        JOINT LeftToeBase
        {
          OFFSET 0.346054 -6.02161 12.8035
          CHANNELS 3 Zrotation Xrotation Yrotation
          End Site
          {
            OFFSET 0.134235 -1.35082 5.13018
          }
        }
      }
    }
  }
  JOINT RightUpLeg
  {
    OFFSET -4.94151 -1.41743 10.6446
    CHANNELS 3 Zrotation Xrotation Yrotation
    JOINT RightLeg
    {
      OFFSET -2.56294 -42.0364 -7.94377
      CHANNELS 3 Zrotation Xrotation Yrotation
      JOINT RightFoot
      {
        OFFSET -3.0952 -42.555 -4.02241
        CHANNELS 3 Zrotation Xrotation Yrotation
        JOINT RightToeBase
        {
          OFFSET -0.0828122 -6.13587 12.8035
          CHANNELS 3 Zrotation Xrotation Yrotation
          End Site
          {
            OFFSET -0.131328 -1.35082 5.13018
          }
        }
      }
    }
  }
}
MOTION
Frames:	13
Frame Time:	0.0333333
-70.8986 45.9789 0.249171 20.5072 -59.99 -69.2934 -70.1915 0 88.8779 162.522 36.6063 -74.6483 -14.0424 23.7819 2.72548 -161.277 29.9979 171.882 -145.348 69.6772 -165.567 -0.946757 -20.2585 -30.0063 -64.5129 50.2879 -73.6705 5.86363 8.86269 -33.5142 0.420957 0.000575676 0.35866 -1.915 10.5915 31.7473 -71.431 -7.46505 114.866 3.88904 -12.0871 25.2176 0.58676 0.000330979 0.0646654 -14.0782 -5.2722 85.0277 -169.236 32.871 139.924 -7.57778 -3.60349 0.372723 34.5882 -45.2483 29.3519 43.5624 -7.25016 89.8786 171.771 46.6429 -178.801 -15.3241 -21.8426 0.891682 2.39936 -16.9717 -24.7431 
-70.8164 45.8199 0.306188 18.9956 -59.0104 -70.6717 -70.1915 0 88.8779 161.627 38.9953 -73.7033 -12.1548 23.7876 2.60332 -162.484 29.8046 173.282 -147.561 69.6648 -163.634 -0.907061 -19.9343 -30.2918 -65.0181 50.3569 -73.6603 5.76887 8.668 -33.6726 0.420957 0.000575675 0.35866 -1.85956 11.0307 30.421 -72.0333 -8.54198 115.599 3.95019 -12.5169 25.1335 0.58676 0.00033098 0.0646654 -12.8861 -4.78828 85.2563 -169.257 32.6936 140.244 -7.27638 -4.53931 0.207677 34.4022 -44.6734 30.3016 44.9898 -6.93557 89.7721 171.782 46.5761 -178.806 -15.2623 -21.6002 0.910103 2.3877 -17.0872 -24.552 
-70.8145 45.8889 0.226314 19.785 -59.7507 -69.5846 -70.1915 0 88.8779 162.357 37.8717 -73.8393 -12.3492 23.8813 2.49408 -162.88 29.8144 173.483 -147.008 69.6491 -164.072 -0.923737 -20.0243 -30.2723 -64.6838 50.5271 -74.1555 5.74077 8.6434 -33.6192 0.420957 0.000575674 0.35866 -1.78722 10.8675 30.0007 -72.3242 -9.00772 115.552 4.22161 -12.8112 25.2514 0.58676 0.000330979 0.0646654 -13.6268 -4.80981 84.8308 -169.235 32.5637 139.459 -7.59113 -4.52698 0.238239 34.8922 -43.9541 33.1788 43.927 -7.3732 89.5586 171.83 46.6827 -179.227 -15.0408 -21.7163 0.917302 2.44477 -16.2627 -23.5997 
-70.7868 45.8851 0.217004 19.8831 -59.6714 -69.4063 -70.1915 0 88.8779 162.325 37.9004 -73.5486 -12.2614 23.7835 2.38257 -163.044 29.8824 173.953 -148.031 69.7973 -163.158 -0.918014 -19.9751 -30.3193 -64.7772 50.6071 -74.1216 5.5002 8.29434 -33.5842 0.420957 0.000575674 0.35866 -1.8004 11.0442 29.8262 -72.0465 -9.11784 115.509 4.53151 -12.5822 25.5629 0.58676 0.00033098 0.0646654 -13.5906 -4.74098 85.0549 -169.224 32.6192 139.23 -7.1017 -3.8818 0.285314 35.2089 -42.854 36.6386 43.9474 -7.55623 89.5548 171.871 46.7457 -179.578 -15.1049 -21.5655 0.922172 2.35606 -17.2205 -22.8058 
-70.8058 45.9135 0.22193 19.7747 -59.8549 -69.478 -70.1915 0 88.8779 162.404 37.735 -73.7222 -12.3654 23.8633 2.41084 -162.772 29.8313 173.77 -148.056 69.7497 -163.011 -0.927688 -20.0343 -30.2932 -64.2665 50.6948 -74.3738 5.13274 7.7244 -33.6542 0.420957 0.000575674 0.35866 -1.82438 11.0217 30.0936 -72.2109 -8.96838 115.392 4.31447 -12.5738 25.3913 0.58676 0.000330981 0.0646654 -13.908 -4.50782 85.0963 -169.22 32.706 139.272 -6.99711 -3.1544 0.377053 36.6293 -44.3314 36.0378 43.6884 -7.47268 89.3754 171.876 46.8415 -179.648 -15.3356 -21.3091 0.922834 2.35036 -17.2948 -22.9062 
-70.8077 45.9256 0.231205 19.7901 -59.7797 -69.4063 -70.1915 0 88.8779 162.389 37.7609 -73.6714 -12.401 23.8728 2.39893 -162.459 29.7709 173.335 -147.367 69.6425 -163.5 -0.902523 -20.0202 -30.0508 -64.1957 50.8853 -74.4862 5.23092 7.86088 -33.6872 0.420957 0.000575674 0.35866 -1.82476 11.0323 30.0791 -71.9814 -8.89324 115.359 4.38214 -12.4332 25.4894 0.58676 0.00033098 0.0646654 -13.7411 -4.61129 84.9416 -169.227 32.6979 139.475 -6.90132 -3.31517 0.344712 36.194 -44.1477 35.555 43.7166 -7.54374 89.3798 171.919 46.8624 -179.988 -15.0428 -21.3345 0.93931 2.31158 -17.7711 -22.0695 
-70.7825 45.91 0.229236 19.6871 -59.85 -69.4895 -70.1915 0 88.8779 162.48 37.6679 -73.581 -12.3608 23.942 2.11921 -162.451 29.7459 173.346 -147.194 69.6008 -163.75 -0.904095 -20.0188 -30.0712 -63.9941 50.7665 -74.517 5.094 7.63976 -33.7476 0.420957 0.000575673 0.35866 -1.8375 11.0325 30.2003 -72.0664 -8.95042 115.361 4.38073 -12.4056 25.4957 0.58676 0.00033098 0.0646654 -13.7641 -4.49959 85.026 -169.224 32.6486 139.292 -6.98997 -3.88147 0.274518 36.5083 -44.1099 36.3227 43.6486 -7.51255 89.2857 171.862 46.863 -179.551 -15.4874 -21.0799 0.927694 2.23373 -18.7254 -23.1811 
-70.7785 45.9273 0.202055 19.7798 -59.8721 -69.3836 -70.1915 0 88.8779 162.475 37.654 -73.656 -12.3371 23.8872 2.31209 -162.646 29.7221 173.55 -147.636 69.5997 -163.53 -0.916954 -20.0306 -30.1848 -63.8746 50.7277 -74.6438 5.04038 7.58152 -33.6728 0.420957 0.000575674 0.35866 -1.82773 11.1172 29.9623 -72.5557 -9.30844 115.261 4.5359 -13.0128 25.4327 0.58676 0.00033098 0.0646654 -13.7895 -4.5668 84.9646 -169.232 32.6728 139.557 -7.05048 -3.82869 0.287718 36.626 -44.7593 34.9826 43.6479 -7.53663 89.3742 171.896 46.8719 -179.814 -14.9956 -21.338 0.941688 2.37074 -16.926 -22.3294 
-70.7637 45.9149 0.196279 19.7004 -59.7926 -69.3707 -70.1915 0 88.8779 162.497 37.6984 -73.5875 -12.3589 23.8581 2.30299 -162.511 29.6415 173.43 -146.797 69.4645 -164.25 -0.892461 -19.9762 -30.0381 -64.1304 50.8066 -74.4914 5.0607 7.62361 -33.6315 0.420957 0.000575675 0.35866 -1.83823 11.1072 30.079 -72.3643 -9.14511 115.307 4.42988 -12.6374 25.4619 0.58676 0.00033098 0.0646654 -13.6787 -4.6093 84.8401 -169.236 32.6301 139.608 -7.16097 -4.03467 0.269244 36.2593 -44.269 35.391 43.758 -7.55194 89.3527 171.866 46.8255 -179.574 -14.959 -21.6168 0.927668 2.30786 -17.7652 -22.3413 
-70.7448 45.9128 0.192809 19.7418 -59.8496 -69.3339 -70.1915 0 88.8779 162.56 37.6119 -73.5553 -12.3021 23.8893 2.11305 -162.558 29.6364 173.291 -146.599 69.4405 -164.435 -0.885358 -19.9763 -29.9603 -63.9422 50.8003 -74.7086 4.96027 7.50638 -33.517 0.420957 0.000575675 0.35866 -1.84421 11.0928 30.1605 -71.8587 -8.89589 115.302 4.35136 -11.8581 25.6429 0.58676 0.000330981 0.0646654 -13.7421 -4.61469 84.9387 -169.233 32.6021 139.467 -7.19054 -4.20611 0.247689 35.577 -43.2385 36.4829 43.7309 -7.54765 89.3783 171.804 46.7615 -179.071 -15.056 -22.0581 0.896161 2.42964 -16.4302 -23.7164 
-70.7207 45.9328 0.204352 19.6364 -59.8474 -69.4253 -70.1915 0 88.8779 162.571 37.6296 -73.5898 -12.3495 23.9099 2.16694 -162.386 29.6385 173.279 -146.625 69.4539 -164.28 -0.922274 -20.1169 -30.0528 -63.7339 50.8234 -74.7312 4.8637 7.36979 -33.489 0.420957 0.000575677 0.35866 -1.8486 11.097 30.1944 -71.9735 -8.91625 115.219 4.48167 -12.1734 25.6504 0.58676 0.000330981 0.0646654 -13.7604 -4.56728 84.9997 -169.231 32.6678 139.54 -7.07651 -3.93626 0.275126 36.7428 -44.4714 35.9322 43.7473 -7.49329 89.5176 171.855 46.6626 -179.417 -13.1503 -23.6131 0.973231 2.68955 -12.9126 -21.9226 
-70.6265 45.9468 0.219348 19.8415 -59.8925 -69.1682 -70.1915 0 88.8779 162.593 37.5311 -73.3161 -12.0853 23.8937 1.87471 -163.018 29.7004 173.419 -147.196 69.5245 -164.225 -0.898925 -20.0165 -30.0239 -63.6686 50.7639 -74.8379 4.85172 7.32024 -33.6032 0.420957 0.000575676 0.35866 -1.81655 11.142 29.8144 -72.1713 -9.32724 115.302 4.6206 -12.2766 25.73 0.58676 0.000330981 0.0646654 -13.8603 -4.67401 85.0031 -169.231 32.6753 139.565 -6.99788 -3.85882 0.278371 36.1955 -43.9265 36.1055 43.5792 -7.6972 89.7435 171.992 46.6211 179.544 -10.5838 -25.7459 1.13425 2.57853 -8.93923 -17.9522 
-70.6645 45.9791 0.201936 19.4967 -59.8439 -69.4096 -70.1915 0 88.8779 162.563 37.5733 -73.3471 -11.7202 23.9915 1.68191 -164.145 29.5644 173.219 -146.605 69.2775 -165.578 -0.777325 -19.6123 -29.5623 -63.4337 50.7999 -75.5915 4.89602 7.42441 -33.4667 0.420957 0.000575678 0.35866 -1.78338 10.9155 29.883 -72.2637 -9.05619 115.745 4.65422 -12.3433 25.7387 0.58676 0.00033098 0.0646654 -13.7181 -4.43548 84.9217 -169.228 32.6518 139.427 -6.89049 -3.60425 0.303594 36.4386 -44.434 35.3746 43.6074 -7.55981 89.5117 171.992 46.7739 179.488 -10.9572 -25.3979 1.10818 2.62356 -9.82768 -18.7335 
